<svg width="15" height="8" viewBox="0 0 15 8" fill="none" xmlns="http://www.w3.org/2000/svg">
<path fill-rule="evenodd" clip-rule="evenodd" d="M0.219363 0.266555C-0.0731219 0.561095 -0.0731219 1.03745 0.219363 1.33126L6.41705 7.55879C6.55367 7.69819 6.71809 7.80919 6.90033 7.88504C7.08257 7.96089 7.27881 8 7.47712 8C7.67544 8 7.87168 7.96089 8.05392 7.88504C8.23615 7.80919 8.40058 7.69819 8.53719 7.55879L14.7806 1.28617C14.9202 1.14381 14.9986 0.955292 15 0.758893C15.0014 0.562494 14.9256 0.372944 14.7881 0.228737C14.7202 0.1573 14.6379 0.100141 14.5463 0.060799C14.4547 0.0214574 14.3558 0.000771093 14.2556 2.11489e-05C14.1554 -0.000728795 14.0561 0.0184736 13.9639 0.0564391C13.8717 0.0944047 13.7885 0.150325 13.7194 0.220738L8.00697 5.96173C7.93866 6.03148 7.85642 6.08703 7.76527 6.12499C7.67412 6.16295 7.57595 6.18252 7.47675 6.18252C7.37754 6.18252 7.27938 6.16295 7.18823 6.12499C7.09707 6.08703 7.01484 6.03148 6.94652 5.96173L1.27906 0.266555C1.21081 0.196818 1.12864 0.141283 1.03755 0.103333C0.946459 0.0653829 0.848355 0.0458117 0.749212 0.0458117C0.65007 0.0458117 0.551964 0.0653829 0.460873 0.103333C0.369782 0.141283 0.28761 0.196818 0.219363 0.266555Z" fill="white"/>
</svg>
