<svg width="25" height="27" viewBox="0 0 25 27" fill="none" xmlns="http://www.w3.org/2000/svg">
<path d="M2.9025 23.8455H18.9439L18.1778 21.3649L20.0104 22.9376L21.69 24.4429L24.75 27V2.78437C24.6735 1.27912 23.3775 0 21.771 0L2.90812 0.003375C1.30275 0.003375 0 1.28475 0 2.79V21.06C0 22.6474 1.3005 23.8455 2.9025 23.8455ZM14.769 6.39337L14.7319 6.40688L14.7454 6.39337H14.769ZM6.18413 7.821C8.24625 6.32025 10.1576 6.39225 10.1576 6.39225L10.3118 6.54413C7.78838 7.146 6.64425 8.27325 6.64425 8.27325C6.64425 8.27325 6.95025 8.12362 7.48462 7.89525C9.01575 7.29338 10.1587 7.06838 10.6954 7.06838H10.9237C11.7641 6.99638 12.7575 6.9165 13.752 7.06838C15.1279 7.22025 16.5037 7.596 18.0304 8.3475C18.0304 8.3475 16.884 7.29338 14.5159 6.61837L14.7251 6.4125C15.0525 6.41362 16.785 6.47437 18.639 7.83C18.639 7.83 20.7135 11.3737 20.7135 15.7275C20.6449 15.6442 19.4265 17.6017 16.2911 17.6693C16.2911 17.6693 15.7601 17.0685 15.3821 16.5443C17.2159 16.0177 17.9021 14.9648 17.9021 14.9648C17.3003 15.3439 16.7513 15.5689 16.3057 15.7939C15.6206 16.0954 14.9344 16.2439 14.2493 16.3958C12.8621 16.6208 11.6438 16.5476 10.5817 16.3958C9.74137 16.2461 9.05737 16.02 8.52525 15.7928C8.217 15.6465 7.84013 15.4957 7.46212 15.3427C7.42725 15.3427 7.4115 15.327 7.3935 15.309V15.3022C7.3755 15.2854 7.35975 15.2685 7.32488 15.2685H7.25625C7.02675 15.1177 6.87375 15.0435 6.87375 15.0435C6.87375 15.0435 7.55888 16.0965 9.3195 16.623C8.85713 17.1506 8.39925 17.7502 8.39925 17.7502C5.265 17.676 4.122 15.7185 4.122 15.7185C4.122 11.358 6.18413 7.821 6.18413 7.821Z" fill="#000"/>
<path d="M14.9715 14.3673C15.7713 14.3673 16.4227 13.6923 16.4227 12.8598C16.4227 12.0329 15.7747 11.3579 14.9715 11.3579V11.3613C14.175 11.3613 13.5225 12.034 13.5202 12.8665C13.5202 13.6923 14.1716 14.3673 14.9715 14.3673ZM9.7762 14.3673C10.5761 14.3673 11.2275 13.6923 11.2275 12.8598C11.2275 12.0329 10.5806 11.3579 9.7807 11.3579L9.7762 11.3613C8.97633 11.3613 8.32495 12.034 8.32495 12.8665C8.32495 13.6923 8.97633 14.3673 9.7762 14.3673Z" fill="#000"/>
</svg>