<svg xmlns="http://www.w3.org/2000/svg" version="1.1" xmlns:xlink="http://www.w3.org/1999/xlink" xmlns:svgjs="http://svgjs.dev/svgjs" width="3806" height="2692" preserveAspectRatio="none" viewBox="0 0 3806 2692"><g mask="url(&quot;#SvgjsMask1016&quot;)" fill="none"><rect width="3806" height="2692" x="0" y="0" fill="rgba(31, 40, 51, 1)"></rect><path d="M673 648.07C660.22 648.07 650.57 661.7 650.57 673C650.57 682.37 660.89 689.41 673 689.41C690.8 689.41 710.39 682.84 710.39 673C710.39 662.17 690.13 648.07 673 648.07" stroke="rgba(102, 252, 241, 1)" stroke-width="2"></path><path d="M1203.24 0C1308.9 30.82 1280.5 196.29 1346 196.29C1406.66 196.29 1359.59 27.99 1455.56 0C1696.09 -70.16 1737.28 0 2019 0C2355.5 0 2355.5 0 2692 0C3028.5 0 3028.5 0 3365 0C3609.36 0 3702.98 -128.42 3853.73 0C4039.48 158.23 3958.95 284.6 4038 573.3C4051.09 621.1 4038 623.15 4038 673C4038 721.07 4049.72 722.76 4038 769.14C3964.71 1059.26 4022.14 1098.65 3867.98 1346C3685.64 1638.57 3664.76 1751.88 3365 1848.98C3076.77 1942.35 2979.82 1670.95 2692 1726.94C2542.8 1755.96 2490.97 1875.12 2490.97 2019C2490.97 2154.59 2576.82 2165.78 2692 2285.88C2899.55 2502.28 3136.43 2575.18 3136.43 2692C3136.43 2778.24 2914.22 2692 2692 2692C2355.5 2692 2355.5 2692 2019 2692C1928.4 2692 1905.09 2745.26 1837.81 2692C1568.59 2478.87 1541.97 2159.21 1346 2159.21C1191.26 2159.21 1322.36 2544.77 1136.38 2692C985.86 2811.16 904.69 2692 673 2692C336.5 2692 194.98 2833.52 0 2692C-141.52 2589.28 -49.47 2430.5 0 2203.53C23.87 2094 119.68 2129.87 146.68 2019C224.11 1701.11 258.05 1658.15 208.86 1346C184.71 1192.78 46.38 1237.7 0 1088.26C-58.05 901.2 0 880.63 0 673C0 336.5 -168.25 168.25 0 0C168.25 -168.25 336.5 0 673 0C938.12 0 972.4 -67.33 1203.24 0" stroke="rgba(102, 252, 241, 1)" stroke-width="2"></path><path d="M3566.9 2692C3566.9 2571.11 3896.71 2270.12 4038 2270.12C4132.26 2270.12 4149.28 2592.34 4038 2692C3913.73 2803.28 3566.9 2782.05 3566.9 2692" stroke="rgba(102, 252, 241, 1)" stroke-width="2"></path><path d="M673 24.93C381.92 349.44 389.62 358.7 89.73 673C53.12 711.37 29.17 730.28 0 730.28C-15.7 730.28 0 701.64 0 673C0 336.5 -168.25 168.25 0 0C168.25 -168.25 336.5 0 673 0C683.19 0 693.39 -4.83 693.39 0C693.39 7.63 683.75 12.94 673 24.93" stroke="rgba(102, 252, 241, 1)" stroke-width="2"></path><path d="M2019 274.19C1899.4 169.71 1846.84 89.5 1846.84 0C1846.84 -47.59 1932.92 0 2019 0C2355.5 0 2355.5 0 2692 0C3028.5 0 3028.5 0 3365 0C3509.22 0 3653.43 -80.34 3653.43 0C3653.43 152.62 3570.69 309.79 3365 465.92C3127.37 646.29 2766.78 577.04 2766.78 673C2766.78 767.42 3128.92 674.75 3365 846.68C3590.97 1011.25 3690.87 1113.28 3690.87 1346C3690.87 1525.87 3559.53 1659.51 3365 1671.87C3060.09 1691.25 2961.85 1323.75 2692 1409.49C2415.58 1497.32 2475.49 1709.87 2272.47 2019C2138.99 2222.25 2168.3 2434.26 2019 2434.26C1842.41 2434.26 1832.13 2212.59 1620.69 2019C1495.63 1904.51 1480.09 1818.1 1346 1818.1C1222.57 1818.1 1179.5 1886.04 1105.64 2019C936.78 2322.99 1031.99 2425.33 860.56 2692C815.67 2761.83 766.78 2692 673 2692C336.5 2692 254.43 2774.07 0 2692C-82.07 2665.52 -49.2 2566.28 0 2474.9C131.99 2229.78 247.9 2278.02 362.38 2019C497.37 1713.57 391.03 1665.38 498.95 1346C546.34 1205.77 551.45 1182.31 673 1099.78C974.97 894.75 1032.71 722.8 1346 770.89C1705.71 826.11 1703.25 1330.72 2019 1306.41C2338.86 1281.78 2617.22 955.77 2617.22 673C2617.22 439.66 2284.59 506.21 2019 274.19" stroke="rgba(102, 252, 241, 1)" stroke-width="2"></path><path d="M2451.64 2692C2451.64 2661.47 2580.31 2575.97 2692 2575.97C2763.98 2575.97 2818.98 2658.62 2818.98 2692C2818.98 2716.64 2755.49 2692 2692 2692C2571.82 2692 2451.64 2719.49 2451.64 2692" stroke="rgba(102, 252, 241, 1)" stroke-width="2"></path><path d="M3847.32 2692C3847.32 2643.07 3980.81 2521.24 4038 2521.24C4076.15 2521.24 4083.04 2651.66 4038 2692C3987.7 2737.04 3847.32 2728.45 3847.32 2692" stroke="rgba(102, 252, 241, 1)" stroke-width="2"></path><path d="M3365 142.37C3269.17 142.37 3140.67 38.6 3140.67 0C3140.67 -32.59 3252.84 0 3365 0C3409.07 0 3453.13 -24.55 3453.13 0C3453.13 46.64 3425.4 142.37 3365 142.37" stroke="rgba(102, 252, 241, 1)" stroke-width="2"></path><path d="M883.31 1346C883.31 1220.82 1126.1 1076.8 1346 1076.8C1518.38 1076.8 1667.87 1219.04 1667.87 1346C1667.87 1464.13 1515.58 1566.99 1346 1566.99C1123.3 1566.99 883.31 1465.91 883.31 1346" stroke="rgba(102, 252, 241, 1)" stroke-width="2"></path><path d="M3020.29 1346C3020.29 1247.3 3216.24 1118.05 3365 1118.05C3462.98 1118.05 3513.77 1239.76 3513.77 1346C3513.77 1428.12 3453.61 1494.77 3365 1494.77C3206.87 1494.77 3020.29 1435.66 3020.29 1346" stroke="rgba(102, 252, 241, 1)" stroke-width="2"></path><path d="M578.09 2019C578.09 1842.17 617.1 1666.48 673 1666.48C730.65 1666.48 805.2 1841.69 805.2 2019C805.2 2212.77 730.51 2408.63 673 2408.63C616.95 2408.63 578.09 2213.24 578.09 2019" stroke="rgba(102, 252, 241, 1)" stroke-width="2"></path><path d="M1964.06 2019C1964.06 1974.32 1995.64 1922.86 2019 1922.86C2040.59 1922.86 2053.96 1972.68 2053.96 2019C2053.96 2049.39 2039.59 2076.28 2019 2076.28C1994.64 2076.28 1964.06 2051.03 1964.06 2019" stroke="rgba(102, 252, 241, 1)" stroke-width="2"></path></g><defs><mask id="SvgjsMask1016"><rect width="3806" height="2692" fill="#ffffff"></rect></mask></defs></svg>